<?xml version="1.0" encoding="utf-8"?><!DOCTYPE svg PUBLIC "-//W3C//DTD SVG 1.1//EN" "http://www.w3.org/Graphics/SVG/1.1/DTD/svg11.dtd"><svg version="1.1" xmlns="http://www.w3.org/2000/svg" xmlns:xlink="http://www.w3.org/1999/xlink" width="32" height="32" viewBox="0 0 32 32" data-tags="plus,add,sum"><g transform="scale(0.03125 0.03125)"><path d="M992 384h-352v-352c0-17.664-14.304-32-32-32h-192c-17.696 0-32 14.336-32 32v352h-352c-17.696 0-32 14.336-32 32v192c0 17.696 14.304 32 32 32h352v352c0 17.696 14.304 32 32 32h192c17.696 0 32-14.304 32-32v-352h352c17.696 0 32-14.304 32-32v-192c0-17.664-14.304-32-32-32z" /></g></svg>